<?xml version="1.0" standalone="no"?>
<!DOCTYPE svg PUBLIC "-//W3C//DTD SVG 20010904//EN"
 "http://www.w3.org/TR/2001/REC-SVG-20010904/DTD/svg10.dtd">
<svg version="1.0" xmlns="http://www.w3.org/2000/svg"
 width="975.000000pt" height="975.000000pt" viewBox="0 0 975.000000 975.000000"
 preserveAspectRatio="xMidYMid meet">
<metadata>
Created by potrace 1.14, written by Peter Selinger 2001-2017
</metadata>
<g transform="translate(0.000000,975.000000) scale(0.100000,-0.100000)"
fill="#000000" stroke="none">
<path d="M1658 8257 c-16 -6 -28 -14 -28 -19 0 -4 -7 -8 -16 -8 -8 0 -12 -4
-9 -10 3 -6 -1 -7 -9 -4 -11 4 -16 0 -16 -11 0 -9 -4 -13 -10 -10 -5 3 -10 1
-10 -5 0 -7 -6 -10 -12 -8 -12 4 -21 -1 -55 -32 -9 -8 -23 -15 -32 -17 -8 -1
-21 -9 -27 -17 -6 -9 -14 -13 -17 -9 -4 3 -7 1 -7 -6 0 -7 -4 -10 -9 -6 -6 3
-14 -2 -19 -11 -5 -9 -12 -16 -15 -15 -16 1 -36 -12 -31 -20 3 -5 2 -9 -3 -8
-22 4 -43 -2 -38 -11 3 -5 -1 -10 -9 -10 -9 0 -16 -5 -16 -11 0 -6 -7 -9 -15
-5 -8 3 -15 1 -15 -4 0 -12 -60 -41 -71 -34 -5 3 -8 0 -7 -8 2 -7 -3 -12 -10
-10 -8 1 -11 -2 -7 -8 3 -5 1 -10 -5 -10 -6 0 -8 -4 -5 -10 3 -5 0 -7 -8 -4
-8 3 -18 0 -22 -5 -3 -6 -11 -9 -16 -6 -5 4 -9 1 -9 -5 0 -7 -7 -9 -16 -6 -8
3 -12 2 -9 -4 7 -11 -29 -32 -40 -22 -5 4 -5 1 -1 -5 4 -8 1 -13 -8 -13 -9 0
-16 -5 -16 -11 0 -6 -7 -9 -15 -5 -9 3 -19 -3 -25 -14 -6 -11 -17 -20 -25 -20
-8 0 -15 -4 -15 -8 0 -5 -16 -14 -35 -22 -19 -8 -35 -20 -35 -27 0 -8 -4 -12
-9 -8 -5 3 -17 -3 -27 -12 -10 -10 -19 -17 -21 -15 -9 7 -23 1 -18 -8 6 -9 2
-12 -27 -14 -7 -1 -19 -9 -26 -19 -7 -9 -18 -15 -23 -12 -5 4 -9 -1 -9 -10 0
-9 -5 -13 -10 -10 -12 8 -42 -13 -35 -24 2 -4 -6 -7 -18 -6 -12 1 -29 -6 -38
-16 -9 -10 -19 -16 -23 -12 -3 3 -6 2 -6 -4 0 -6 -16 -18 -35 -27 -19 -9 -35
-22 -35 -28 0 -6 -3 -8 -7 -5 -3 4 -15 0 -25 -10 -10 -9 -18 -13 -18 -9 0 4
-10 -3 -22 -14 -12 -11 -28 -18 -36 -15 -7 2 -10 0 -7 -5 3 -6 -2 -13 -12 -17
-10 -4 -20 -9 -23 -12 -3 -3 -18 -13 -35 -22 -16 -9 -29 -22 -27 -29 2 -10 -1
-11 -10 -3 -15 11 -51 -19 -40 -33 4 -5 -1 -2 -10 5 -10 7 -18 9 -18 4 0 -5
-12 -16 -27 -24 -16 -8 -36 -22 -46 -33 -9 -10 -17 -15 -17 -11 0 5 -7 0 -15
-11 -9 -12 -14 -14 -15 -6 0 7 -4 11 -9 8 -5 -3 -8 -22 -7 -41 1 -19 -3 -35
-9 -35 -5 0 -3 -5 5 -10 8 -5 11 -10 5 -10 -11 0 -11 -75 0 -102 4 -10 3 -18
-3 -18 -6 0 -7 -13 -2 -35 5 -24 4 -35 -4 -35 -6 0 -4 -5 4 -10 12 -8 12 -10
1 -10 -11 0 -11 -3 -1 -15 7 -8 9 -15 4 -15 -10 0 -9 -76 1 -102 4 -10 3 -18
-3 -18 -6 0 -7 -13 -2 -35 5 -23 4 -40 -3 -48 -14 -15 -20 -37 -10 -37 5 0 8
-11 8 -25 0 -14 -3 -25 -6 -25 -3 0 -6 -7 -6 -15 0 -8 5 -15 10 -15 5 0 4 -7
-3 -15 -10 -12 -10 -15 0 -15 9 0 9 -4 -1 -17 -12 -15 -12 -16 1 -8 13 8 13 7
1 -8 -9 -12 -10 -17 -2 -17 7 0 9 -5 5 -12 -12 -19 -12 -48 0 -48 6 0 4 -5 -4
-10 -8 -5 -10 -10 -5 -10 6 0 10 -11 10 -25 0 -14 -3 -25 -6 -25 -3 0 -6 -7
-6 -15 0 -8 5 -15 10 -15 5 0 4 -7 -3 -15 -10 -12 -10 -15 0 -15 9 0 9 -4 -1
-17 -12 -15 -12 -16 1 -8 13 8 13 7 1 -8 -9 -12 -10 -17 -2 -17 7 0 9 -5 5
-12 -12 -19 -12 -48 0 -48 6 0 4 -5 -4 -10 -8 -5 -10 -10 -5 -10 6 0 10 -11
10 -25 0 -14 -3 -25 -6 -25 -3 0 -6 -7 -6 -15 0 -8 5 -15 10 -15 5 0 4 -7 -3
-15 -10 -12 -10 -15 0 -15 9 0 9 -4 -1 -17 -12 -15 -12 -16 1 -8 13 8 13 7 1
-8 -11 -14 -11 -17 0 -17 11 0 11 -2 -1 -10 -8 -5 -11 -10 -7 -10 4 0 3 -8 -2
-18 -7 -13 -6 -23 1 -30 7 -7 8 -12 3 -12 -13 0 -13 -73 0 -82 6 -5 6 -8 -2
-8 -8 0 -9 -9 -3 -30 6 -21 5 -30 -3 -30 -7 0 -6 -4 3 -10 10 -6 11 -10 3 -10
-9 0 -10 -7 -3 -25 7 -18 6 -25 -3 -25 -8 0 -7 -4 3 -10 8 -5 11 -10 5 -10 -5
0 -10 -17 -10 -37 0 -21 5 -41 10 -45 6 -5 6 -8 -2 -8 -8 0 -9 -9 -3 -30 6
-21 5 -30 -3 -30 -7 0 -6 -4 3 -10 10 -6 11 -10 3 -10 -9 0 -10 -7 -3 -25 7
-18 6 -25 -3 -25 -8 0 -7 -4 3 -10 8 -5 11 -10 5 -10 -5 0 -10 -17 -10 -37 0
-21 5 -41 10 -45 6 -5 6 -8 -2 -8 -8 0 -9 -9 -3 -30 6 -21 5 -30 -3 -30 -7 0
-6 -4 3 -10 10 -6 11 -10 3 -10 -9 0 -10 -7 -3 -25 7 -18 6 -25 -3 -25 -8 0
-7 -4 3 -10 8 -5 11 -10 5 -10 -5 0 -10 -17 -10 -37 0 -21 5 -41 10 -45 6 -5
6 -8 -2 -8 -8 0 -9 -9 -3 -30 5 -16 5 -30 0 -30 -4 0 -7 -8 -6 -17 2 -10 -2
-21 -8 -25 -7 -5 -7 -8 3 -8 11 0 11 -3 1 -15 -9 -11 -9 -15 -1 -15 7 0 9 -5
4 -12 -10 -17 -13 -38 -4 -38 4 0 7 -9 7 -20 0 -11 -4 -20 -8 -20 -5 0 -4 -8
1 -19 6 -10 7 -21 4 -25 -10 -9 -13 -36 -4 -36 4 0 7 -9 7 -20 0 -11 -4 -20
-8 -20 -5 0 -4 -8 1 -19 6 -10 7 -21 4 -25 -11 -10 -12 -36 -2 -36 5 0 5 -10
0 -22 -10 -28 -4 -48 15 -48 8 0 14 -5 14 -11 0 -6 6 -9 13 -6 6 2 17 -3 23
-11 10 -14 29 -21 62 -24 6 -1 12 -5 12 -10 0 -4 6 -7 13 -5 6 1 11 -3 10 -8
-1 -6 7 -12 18 -13 44 -4 49 -6 49 -19 0 -7 5 -13 11 -13 5 0 7 6 4 13 -4 6 0
4 9 -7 8 -10 19 -15 25 -11 6 3 11 1 11 -5 0 -7 6 -10 13 -7 6 2 18 -5 25 -17
12 -18 13 -19 7 -2 -6 19 -5 19 13 3 10 -9 24 -17 30 -17 7 0 12 -4 12 -10 0
-5 6 -10 13 -10 18 0 67 -24 67 -32 0 -5 5 -8 11 -8 5 0 7 5 3 11 -3 6 5 3 20
-6 14 -10 26 -21 26 -26 0 -4 9 -6 20 -4 11 2 18 0 15 -6 -4 -5 3 -9 14 -9 12
0 21 -4 21 -9 0 -9 48 -26 63 -23 4 1 7 -3 7 -9 0 -5 5 -7 10 -4 6 3 10 1 10
-4 0 -6 9 -11 20 -11 11 0 20 -4 20 -10 0 -5 9 -10 20 -10 11 0 20 -4 20 -10
0 -5 9 -10 20 -10 11 0 20 -5 20 -11 0 -5 4 -7 10 -4 6 3 10 2 10 -3 0 -6 10
-8 23 -5 18 4 19 3 7 -6 -13 -9 -12 -11 5 -11 11 0 48 -16 82 -34 35 -19 60
-30 57 -25 -3 5 2 6 10 3 9 -3 16 -10 16 -15 0 -5 9 -9 20 -9 11 0 20 -4 20
-10 0 -5 9 -10 20 -10 11 0 20 -4 20 -10 0 -5 9 -10 20 -10 11 0 20 -4 20 -10
0 -5 9 -10 19 -10 11 0 21 -5 23 -10 2 -6 13 -12 26 -13 12 0 22 -5 22 -9 0
-4 9 -8 20 -8 11 0 20 -4 20 -10 0 -5 7 -10 15 -10 8 0 15 -6 15 -12 0 -9 4
-8 10 2 6 10 10 11 10 3 0 -7 7 -13 15 -13 9 0 18 -7 21 -15 4 -8 10 -13 14
-10 12 7 41 -6 35 -15 -3 -5 4 -6 15 -3 12 3 20 0 20 -6 0 -7 5 -9 10 -6 6 3
10 1 10 -5 0 -6 5 -8 10 -5 6 3 10 1 10 -6 0 -7 3 -9 7 -6 3 4 14 0 23 -8 10
-9 28 -18 41 -20 13 -3 25 -9 27 -14 2 -6 10 -7 19 -4 12 5 14 3 8 -8 -8 -12
-6 -12 9 0 15 12 17 12 14 0 -2 -8 3 -13 10 -12 6 2 12 -1 12 -7 0 -5 7 -7 16
-3 13 5 13 7 2 14 -9 6 -10 9 -1 9 9 0 10 7 4 23 -5 14 -5 30 0 40 7 12 6 17
-2 17 -8 0 -8 4 1 15 10 12 10 15 -1 15 -9 0 -10 3 -4 8 12 9 15 52 3 52 -5 0
-4 9 2 20 6 11 7 20 2 20 -10 0 -8 42 3 59 3 6 1 11 -6 11 -9 0 -9 3 0 14 8
10 9 16 1 21 -7 4 -7 12 0 26 8 14 7 19 -1 19 -8 0 -8 4 -1 13 14 17 15 19 4
48 -6 16 -7 31 -1 42 7 12 6 17 -2 17 -9 0 -9 3 0 14 9 11 9 15 -1 19 -7 3 -8
6 -2 6 11 1 10 63 -1 81 -3 6 -1 10 5 10 7 0 8 6 0 19 -7 14 -7 22 1 27 8 4 7
9 -2 15 -10 6 -10 9 -2 9 9 0 10 7 4 23 -5 14 -5 30 0 40 7 12 6 17 -2 17 -9
0 -9 3 0 14 8 10 9 16 1 21 -7 4 -7 12 0 26 8 13 7 19 0 19 -6 0 -8 5 -3 13
11 18 12 37 2 37 -6 0 -5 8 1 20 8 14 8 20 0 20 -7 0 -8 6 -2 18 5 9 6 26 2
37 -4 11 -3 28 2 38 6 11 5 17 -3 17 -8 0 -8 4 1 15 10 12 10 15 -1 15 -9 0
-10 3 -4 8 12 9 15 52 3 52 -5 0 -4 9 2 20 6 11 7 20 2 20 -10 0 -8 42 3 59 3
6 1 11 -6 11 -9 0 -9 3 0 14 8 10 9 16 1 21 -7 4 -7 12 0 26 8 14 7 19 -1 19
-9 0 -9 3 0 14 8 10 9 16 1 21 -7 4 -7 12 0 26 8 14 7 19 -1 19 -9 0 -9 3 0
14 8 10 9 16 1 21 -7 4 -7 12 0 26 8 13 7 19 0 19 -6 0 -8 5 -3 13 11 18 12
37 2 37 -6 0 -5 8 1 20 8 14 8 20 0 20 -7 0 -8 6 -2 18 5 9 6 26 2 37 -4 11
-3 28 2 38 6 11 5 17 -3 17 -8 0 -8 4 1 15 10 12 10 15 -1 15 -9 0 -10 3 -4 8
12 9 15 52 3 52 -5 0 -4 9 2 20 6 11 7 20 2 20 -10 0 -8 42 3 59 3 6 1 11 -6
11 -9 0 -9 3 0 14 8 10 9 16 1 21 -7 4 -7 12 0 26 8 13 7 19 0 19 -6 0 -8 5
-3 13 11 18 12 37 2 37 -6 0 -5 8 1 20 8 14 8 20 0 20 -7 0 -8 6 -2 18 5 9 6
26 2 37 -4 11 -3 28 2 38 6 11 5 17 -3 17 -8 0 -8 4 1 15 10 12 10 15 -1 15
-9 0 -10 3 -4 8 12 9 15 52 3 52 -5 0 -4 9 2 20 6 11 7 20 2 20 -5 0 -7 11 -4
25 2 14 9 22 16 19 6 -3 2 2 -8 10 -15 12 -16 16 -5 16 12 0 12 2 -1 10 -8 5
-13 10 -10 11 3 0 13 2 23 4 9 2 17 0 17 -4 0 -9 51 -35 63 -33 4 1 7 -2 7 -8
0 -5 7 -10 15 -10 8 0 15 -4 15 -10 0 -5 7 -10 16 -10 8 0 13 -4 10 -8 -2 -4
5 -9 17 -9 12 -1 23 -7 25 -13 2 -5 10 -10 18 -10 9 0 12 -5 8 -12 -5 -7 -3
-8 6 -3 8 5 18 1 27 -10 9 -14 13 -15 13 -4 1 8 7 3 15 -11 7 -14 15 -23 17
-21 2 3 14 2 27 -2 15 -3 20 -10 15 -18 -4 -8 -3 -10 4 -5 7 4 12 2 12 -3 0
-6 3 -10 8 -10 18 3 33 -2 28 -9 -2 -4 5 -9 17 -9 12 -1 23 -7 25 -13 2 -5 13
-10 25 -10 11 0 17 -3 14 -7 -4 -3 3 -11 16 -18 15 -8 24 -8 29 -1 5 7 8 4 8
-6 0 -9 9 -20 20 -23 11 -4 18 -10 15 -15 -3 -4 4 -6 15 -3 12 3 22 -1 26 -11
3 -9 10 -13 15 -10 5 3 9 0 9 -6 0 -6 4 -8 10 -5 6 3 10 1 10 -5 0 -6 5 -8 10
-5 6 3 10 1 10 -5 0 -6 5 -8 10 -5 6 3 10 -1 10 -9 0 -10 6 -13 15 -10 8 4 15
1 15 -5 0 -6 7 -11 15 -11 8 0 15 -5 15 -10 0 -6 6 -9 13 -8 6 2 11 -3 9 -11
-2 -8 3 -11 13 -8 8 4 24 -3 36 -16 12 -12 18 -15 13 -7 -4 8 8 3 28 -12 19
-15 38 -25 40 -22 3 2 11 -2 18 -11 7 -8 19 -15 27 -15 7 0 16 -7 19 -15 4 -8
10 -12 15 -9 5 3 9 0 9 -5 0 -6 3 -10 8 -10 21 4 32 -3 32 -18 0 -15 2 -16 10
-3 6 10 10 11 10 3 0 -7 6 -13 14 -13 7 0 19 -7 26 -15 7 -9 19 -14 27 -11 7
3 13 -1 13 -8 0 -12 13 -19 48 -26 4 -1 17 -11 30 -22 12 -12 22 -17 22 -12 0
5 7 1 14 -9 8 -10 24 -20 36 -22 12 -2 31 -14 41 -26 11 -13 19 -17 19 -9 0 7
12 0 26 -16 15 -16 23 -22 19 -14 -6 13 -5 13 7 0 7 -9 23 -15 35 -14 12 1 22
-2 21 -5 -2 -22 4 -32 17 -27 8 3 15 1 15 -4 0 -6 7 -10 15 -10 8 0 15 -5 15
-11 0 -5 5 -7 10 -4 6 3 10 1 10 -5 0 -7 6 -10 14 -7 8 3 17 -1 20 -10 4 -9 9
-13 12 -10 4 3 12 1 20 -6 39 -35 42 -37 47 -24 3 7 6 4 6 -5 1 -11 9 -18 21
-18 11 0 20 -5 20 -12 0 -6 3 -8 7 -5 3 4 11 0 17 -9 6 -8 21 -16 33 -17 12 0
19 -5 17 -9 -3 -4 2 -8 10 -8 9 0 16 -5 16 -11 0 -6 7 -8 16 -5 8 3 13 2 10
-2 -3 -5 13 -16 34 -26 22 -10 40 -22 40 -27 0 -6 4 -8 9 -4 6 3 14 -3 20 -12
8 -14 11 -15 11 -3 0 12 3 11 11 -3 6 -9 14 -15 19 -12 4 3 11 -2 14 -11 3 -8
10 -12 16 -9 5 3 10 1 10 -5 0 -7 7 -10 15 -6 9 3 15 0 15 -9 0 -8 8 -15 19
-15 10 0 24 -7 31 -15 7 -8 16 -13 20 -10 5 3 10 2 12 -2 1 -5 18 -19 37 -32
19 -13 30 -17 26 -10 -5 8 3 4 17 -8 13 -13 29 -23 35 -23 6 0 13 -5 15 -10 2
-6 13 -12 25 -13 12 0 20 -3 18 -5 -7 -8 20 -29 31 -25 7 2 18 -4 25 -15 8
-10 22 -18 32 -16 9 1 17 -4 17 -12 0 -8 5 -14 11 -14 5 0 7 6 4 13 -4 6 2 2
13 -10 11 -12 22 -19 26 -16 3 4 6 1 6 -6 0 -7 7 -11 15 -8 8 4 17 1 21 -5 5
-7 2 -8 -7 -4 -8 4 -5 1 5 -8 10 -8 23 -13 27 -10 5 3 9 0 9 -5 0 -6 -7 -11
-16 -11 -8 0 -12 -4 -9 -10 4 -6 -1 -7 -11 -3 -11 4 -15 2 -11 -4 4 -6 0 -14
-9 -17 -10 -4 -13 -2 -9 7 4 6 -5 0 -18 -15 -14 -15 -28 -24 -32 -20 -4 4 -13
-2 -21 -12 -8 -11 -14 -16 -14 -12 0 4 -21 -7 -47 -25 -25 -18 -43 -26 -39
-18 4 8 -1 4 -11 -7 -10 -12 -28 -25 -40 -29 -13 -3 -23 -11 -23 -16 0 -6 -4
-7 -10 -4 -5 3 -10 1 -10 -4 0 -6 -9 -11 -20 -11 -11 0 -23 -7 -27 -16 -3 -8
-12 -13 -20 -10 -8 3 -12 2 -9 -3 3 -4 -12 -17 -34 -27 -22 -10 -40 -23 -40
-27 0 -5 -4 -6 -9 -3 -5 3 -20 -5 -33 -17 -14 -13 -30 -21 -36 -19 -7 2 -12
-2 -12 -8 0 -7 -7 -10 -16 -6 -8 3 -13 2 -10 -2 3 -5 -4 -16 -15 -25 -13 -11
-19 -13 -19 -4 0 6 -8 2 -18 -9 -9 -12 -34 -28 -56 -35 -21 -8 -41 -20 -43
-26 -3 -7 -11 -13 -19 -13 -7 0 -18 -8 -23 -17 -6 -10 -11 -12 -11 -5 0 8 -7
6 -20 -5 -11 -10 -29 -25 -39 -35 -14 -12 -22 -13 -31 -5 -10 9 -11 9 -6 0 4
-7 2 -13 -3 -13 -21 0 -26 -2 -38 -12 -7 -6 -10 -15 -6 -21 3 -5 1 -7 -4 -4
-6 4 -22 -2 -35 -13 -14 -11 -28 -16 -32 -13 -3 3 -6 1 -6 -6 0 -7 -5 -9 -10
-6 -6 3 -13 -1 -16 -10 -4 -9 -13 -14 -21 -11 -8 3 -12 2 -9 -3 3 -5 -9 -14
-27 -21 -17 -7 -40 -23 -50 -34 -10 -12 -15 -14 -11 -6 6 12 5 13 -8 3 -8 -7
-18 -10 -21 -6 -4 3 -7 -1 -7 -10 0 -10 -8 -17 -20 -17 -11 0 -20 -5 -20 -11
0 -6 -7 -9 -14 -6 -10 4 -13 1 -10 -8 4 -10 0 -13 -15 -10 -14 2 -21 -1 -21
-11 0 -8 -4 -12 -10 -9 -5 3 -10 1 -10 -5 0 -6 -4 -8 -10 -5 -5 3 -10 1 -10
-4 0 -6 -7 -11 -16 -11 -8 0 -13 -4 -9 -9 3 -6 -4 -8 -15 -6 -12 2 -20 -1 -20
-10 0 -8 -5 -17 -12 -21 -7 -5 -8 -3 -3 5 6 10 3 11 -13 2 -12 -6 -26 -19 -31
-29 -6 -9 -11 -11 -11 -4 0 6 -5 12 -12 12 -6 0 -9 -3 -6 -6 4 -3 -2 -14 -13
-25 -22 -22 -33 -25 -24 -6 4 6 -1 3 -10 -8 -9 -11 -18 -18 -21 -15 -3 3 -17
-6 -31 -20 -15 -14 -23 -18 -19 -10 4 8 0 6 -8 -4 -9 -11 -16 -16 -16 -10 0 5
-7 0 -15 -10 -8 -11 -15 -16 -15 -12 0 4 -20 -7 -44 -24 -25 -16 -49 -30 -55
-30 -6 0 -20 -10 -32 -23 -12 -12 -19 -15 -15 -7 4 8 -1 5 -12 -8 -14 -15 -22
-18 -25 -10 -4 10 -6 10 -6 1 -1 -7 -8 -13 -17 -13 -8 0 -12 -4 -9 -10 5 -8
-19 -15 -28 -7 -7 6 -34 -29 -29 -38 3 -5 2 -7 -3 -3 -4 4 -15 2 -23 -5 -13
-10 -14 -9 -7 2 6 10 4 12 -4 7 -7 -5 -10 -13 -8 -20 3 -6 -7 -12 -21 -13 -15
0 -28 -6 -30 -12 -2 -6 -10 -11 -17 -11 -8 0 -24 -10 -36 -22 -12 -13 -19 -16
-15 -8 4 8 0 6 -8 -4 -9 -11 -16 -16 -16 -12 0 4 -7 0 -16 -8 -8 -9 -22 -16
-30 -16 -8 0 -14 -5 -14 -11 0 -5 -4 -8 -9 -5 -5 3 -12 -1 -15 -10 -3 -8 -10
-12 -16 -9 -5 3 -10 2 -10 -3 0 -13 -56 -32 -66 -24 -5 4 -2 -1 5 -11 12 -15
12 -17 -3 -11 -9 4 -18 0 -22 -9 -3 -9 -12 -13 -20 -10 -8 3 -14 0 -14 -5 0
-6 -16 -16 -34 -23 -19 -7 -33 -16 -30 -21 3 -4 -4 -8 -15 -8 -11 0 -27 -10
-35 -22 -9 -12 -16 -19 -16 -14 0 5 -8 2 -17 -5 -14 -12 -16 -12 -9 1 7 13 6
13 -6 0 -7 -8 -25 -21 -40 -29 -16 -8 -28 -18 -28 -23 0 -5 -5 -6 -10 -3 -6 3
-13 -1 -16 -9 -3 -9 -10 -13 -15 -10 -5 3 -9 0 -9 -7 0 -7 -3 -9 -7 -6 -3 4
-17 -3 -30 -15 -13 -12 -23 -18 -23 -13 0 5 -11 -2 -25 -15 -14 -13 -25 -20
-25 -16 0 4 -15 -3 -32 -16 -18 -13 -37 -23 -41 -23 -4 0 -11 -6 -16 -13 -5
-8 -11 -13 -15 -13 -24 3 -35 -2 -41 -19 -3 -11 -9 -19 -13 -19 -22 3 -42 -2
-38 -10 3 -5 -1 -12 -10 -15 -10 -4 -13 -2 -8 7 4 6 -3 2 -16 -11 -12 -13 -29
-21 -37 -18 -8 3 -12 2 -10 -2 3 -4 -1 -13 -9 -20 -11 -10 -14 -10 -14 0 -1 7
-6 4 -13 -7 -7 -11 -19 -21 -27 -23 -8 -2 -18 -8 -21 -14 -4 -6 -12 -7 -18 -4
-6 4 -11 3 -11 -2 0 -15 -70 -53 -82 -46 -7 4 -8 2 -4 -5 5 -7 -4 -15 -23 -22
-17 -6 -31 -15 -31 -21 0 -5 -4 -6 -10 -3 -5 3 -10 2 -10 -2 0 -5 -9 -14 -21
-21 -17 -11 -20 -11 -13 0 6 10 4 10 -9 -1 -9 -7 -14 -17 -11 -22 3 -5 -2 -6
-10 -3 -9 3 -16 1 -16 -5 0 -6 -6 -10 -13 -8 -6 1 -11 -3 -10 -9 1 -7 -5 -11
-15 -10 -9 0 -16 -5 -14 -12 1 -8 -2 -11 -8 -7 -6 4 -17 1 -25 -5 -8 -6 -19
-9 -25 -5 -6 4 -9 1 -8 -7 2 -7 -5 -12 -14 -12 -10 1 -18 -5 -18 -13 0 -8 -4
-12 -9 -9 -5 4 -11 2 -13 -3 -1 -5 -10 -11 -18 -13 -8 -2 -21 -9 -28 -16 -8
-7 -18 -10 -23 -6 -5 3 -8 0 -7 -8 2 -8 -6 -13 -19 -12 -13 1 -20 -3 -17 -8 3
-5 -3 -12 -15 -15 -11 -3 -19 -9 -16 -13 3 -5 -4 -6 -15 -3 -14 4 -20 0 -20
-11 0 -10 -4 -15 -10 -11 -5 3 -20 -5 -32 -17 -13 -13 -27 -22 -31 -20 -4 1
-15 -4 -23 -13 -9 -8 -22 -15 -30 -15 -8 0 -14 -3 -14 -8 0 -4 -15 -14 -32
-21 -18 -8 -41 -24 -51 -35 -10 -12 -15 -14 -11 -6 7 12 5 13 -8 3 -8 -7 -17
-10 -21 -7 -3 3 -8 -4 -12 -15 -3 -12 -10 -19 -15 -16 -5 3 -16 -2 -24 -11 -9
-8 -16 -12 -16 -7 0 4 -4 3 -8 -2 -4 -6 -20 -17 -37 -25 -16 -8 -42 -22 -56
-32 -14 -10 -29 -14 -33 -11 -4 4 -4 -1 0 -11 6 -15 4 -17 -6 -11 -9 5 -11 4
-6 -4 4 -6 12 -9 17 -6 5 4 9 1 9 -6 0 -6 8 -9 19 -6 14 3 18 1 14 -10 -3 -7
-2 -13 3 -12 19 3 31 -2 52 -21 12 -12 22 -18 22 -15 0 3 14 -1 30 -10 17 -9
30 -12 30 -8 0 5 5 0 11 -9 5 -10 19 -18 30 -18 11 0 17 -5 14 -10 -4 -6 5
-10 20 -10 14 0 28 -6 31 -14 3 -9 12 -12 21 -9 11 4 14 2 9 -5 -4 -7 -1 -12
9 -12 9 0 23 -7 32 -15 8 -8 19 -13 24 -10 5 4 9 1 9 -5 0 -6 4 -8 10 -5 5 3
10 1 10 -5 0 -6 4 -8 10 -5 5 3 10 1 10 -6 0 -7 3 -9 6 -6 4 4 20 -3 35 -14
16 -11 29 -17 29 -13 0 4 9 -3 20 -16 11 -13 20 -17 20 -10 0 8 6 6 17 -6 10
-11 25 -19 33 -19 8 0 20 -6 27 -15 6 -8 14 -12 18 -8 4 3 15 -2 26 -13 11
-11 24 -17 29 -14 6 4 10 1 10 -5 0 -7 7 -10 15 -6 9 3 15 0 15 -9 0 -8 9 -15
20 -15 11 0 20 -4 20 -10 0 -5 9 -10 20 -10 11 0 20 -3 20 -7 0 -5 11 -13 25
-19 18 -9 25 -9 29 0 2 6 5 4 5 -5 1 -9 8 -20 17 -23 10 -4 13 -2 9 7 -4 6 -1
5 7 -3 7 -8 22 -22 32 -30 18 -13 19 -13 12 0 -4 9 -1 8 7 -2 8 -10 22 -18 31
-18 10 0 14 -5 11 -10 -5 -8 29 -15 38 -7 6 6 34 -29 29 -37 -3 -5 0 -6 6 -2
14 9 65 -12 57 -24 -3 -6 1 -7 9 -4 9 3 16 1 16 -6 0 -6 5 -8 10 -5 6 3 10 1
10 -5 0 -6 4 -8 10 -5 5 3 10 1 10 -5 0 -6 5 -8 10 -5 6 3 10 1 10 -5 0 -6 4
-8 10 -5 5 3 10 1 10 -4 0 -6 9 -11 21 -11 12 0 17 -4 14 -11 -4 -6 -1 -10 6
-8 27 3 40 -1 34 -11 -3 -5 3 -10 14 -10 12 0 21 -5 21 -12 0 -6 3 -8 7 -5 3
4 12 2 20 -4 7 -6 13 -8 13 -5 0 6 10 -1 43 -30 7 -6 18 -9 25 -6 6 2 15 -4
18 -12 4 -11 13 -14 24 -11 12 4 24 -2 33 -15 7 -11 17 -17 20 -13 4 3 7 1 7
-5 0 -7 3 -12 8 -11 18 3 51 -14 57 -29 5 -14 7 -14 15 -2 8 12 10 11 10 -5 0
-15 3 -17 9 -7 4 8 11 13 15 12 16 -5 47 10 41 19 -3 7 0 8 9 5 9 -4 16 -1 16
6 0 7 6 10 14 7 8 -3 17 1 20 10 4 8 12 13 20 10 7 -3 19 3 27 14 7 10 21 19
30 19 9 0 22 7 29 15 7 8 20 15 29 15 14 0 14 2 1 10 -8 5 -10 10 -5 10 6 0
16 -5 23 -12 9 -9 12 -8 12 5 0 9 7 17 15 17 9 0 18 6 21 14 3 8 12 12 20 9 8
-3 14 0 14 6 0 6 7 11 15 11 8 0 15 5 15 11 0 5 5 7 10 4 6 -3 13 1 16 9 3 9
10 13 15 10 5 -3 9 0 9 6 0 6 5 8 10 5 6 -3 10 -2 10 4 0 6 7 7 17 4 9 -4 14
-2 11 3 -7 12 12 29 32 29 8 0 23 9 33 20 10 11 15 13 11 5 -4 -8 8 -1 26 15
18 17 30 23 26 15 -5 -9 -2 -8 7 2 8 10 17 15 20 11 4 -3 7 -1 7 5 0 7 5 12
12 12 6 0 20 8 31 18 13 10 17 12 12 3 -5 -8 7 -3 27 12 19 15 40 27 46 27 7
0 12 4 12 9 0 5 11 12 25 15 14 4 23 11 20 15 -3 5 3 8 12 7 10 -2 24 5 31 15
7 11 22 19 33 19 10 0 19 5 19 11 0 5 5 7 10 4 6 -3 10 -1 10 4 0 6 7 11 15
11 8 0 15 4 15 10 0 5 7 6 17 3 11 -4 14 -3 9 5 -4 7 -3 12 3 12 5 0 37 16 71
36 33 19 65 32 70 29 6 -4 9 -1 8 7 -2 7 3 12 10 10 7 -1 15 5 18 13 3 8 10
12 15 9 5 -3 9 0 9 5 0 6 7 11 15 11 9 0 18 7 22 16 5 13 7 13 14 2 7 -11 9
-11 9 1 0 8 6 11 16 7 14 -6 15 -4 4 9 -7 9 -9 15 -4 14 16 -5 55 12 49 21 -3
4 5 6 17 2 13 -3 19 -1 15 5 -4 6 0 14 9 17 10 4 13 2 9 -7 -4 -6 0 -4 8 6 8
9 19 17 26 17 6 0 11 5 11 11 0 5 5 7 10 4 6 -3 13 1 16 9 3 9 10 13 15 10 5
-3 9 -1 9 5 0 5 9 8 20 6 11 -2 18 0 15 5 -3 5 5 12 17 16 12 3 28 13 36 20 7
8 20 14 28 14 8 0 14 4 14 9 0 5 10 13 22 17 13 4 29 14 36 23 8 9 11 10 7 3
-10 -19 1 -14 31 13 15 14 33 24 39 21 6 -2 17 5 24 16 7 11 15 17 18 14 3 -3
12 2 20 12 8 9 12 11 8 5 -10 -20 1 -15 31 12 15 14 33 24 40 21 7 -3 15 2 18
10 3 9 10 13 15 10 5 -3 12 1 15 10 4 10 14 14 26 11 11 -3 18 -1 14 4 -3 5 0
9 6 9 6 0 8 5 4 12 -4 6 -3 8 4 4 6 -3 13 -2 17 4 4 6 11 8 16 5 5 -4 9 -1 9
4 0 6 7 11 16 11 9 0 12 5 8 11 -4 7 -1 10 7 7 8 -3 19 0 26 6 33 29 41 34 47
29 3 -4 15 4 25 16 11 12 22 22 25 22 24 -3 36 1 31 9 -3 6 2 10 13 10 10 0
31 11 45 24 19 18 28 21 37 12 6 -6 10 -6 8 -1 -2 6 0 10 4 10 4 0 14 9 23 20
9 11 14 13 10 5 -4 -8 3 -4 15 10 12 14 19 19 15 13 -3 -8 6 -6 24 4 16 10 28
21 25 24 -2 4 4 6 13 5 10 -2 24 4 31 13 8 9 10 10 6 2 -5 -10 -3 -12 5 -7 7
5 10 14 7 21 -3 8 2 11 15 8 10 -3 19 -1 19 4 0 5 16 15 35 23 19 8 35 17 35
20 0 3 16 12 35 20 19 8 35 17 35 22 0 4 5 8 11 8 7 0 18 8 26 18 9 10 11 11
7 2 -6 -11 -2 -10 13 2 11 10 25 18 32 18 7 0 9 5 5 13 -5 7 -1 7 12 -3 10 -8
16 -11 12 -6 -3 4 2 16 13 27 22 22 33 25 24 7 -4 -7 -1 -6 7 3 7 9 16 16 20
15 4 -1 17 7 28 16 11 10 25 18 30 18 5 0 19 10 31 23 12 12 19 16 15 10 -4
-7 -2 -13 3 -13 6 0 11 5 11 11 0 5 14 15 30 20 17 6 30 15 30 21 0 5 5 6 10
3 6 -3 13 0 16 9 3 8 11 13 19 10 7 -3 15 2 19 11 3 9 10 13 16 10 6 -3 13 1
16 9 3 9 10 16 16 16 5 0 6 -6 3 -12 -4 -7 3 -3 14 10 12 14 25 20 32 16 8 -4
9 -3 5 4 -4 7 -1 12 7 12 8 0 20 7 27 15 7 8 16 12 21 9 5 -3 9 0 9 6 0 6 5 8
10 5 6 -3 10 -1 10 4 0 6 6 10 13 8 6 -1 11 3 10 8 -1 6 8 12 20 12 12 1 27
10 34 19 7 10 13 14 13 8 0 -5 7 0 15 10 11 14 15 16 15 5 1 -10 3 -9 11 4 6
9 14 15 20 12 5 -4 9 1 9 10 0 10 5 13 12 9 6 -4 17 1 25 11 7 11 13 15 13 11
0 -5 7 -3 15 4 8 7 15 10 15 7 0 -3 12 5 27 19 20 19 28 21 35 12 6 -10 8 -8
8 5 0 9 7 17 16 17 9 0 12 5 8 12 -4 6 -3 8 4 4 6 -3 13 -2 17 4 4 6 11 8 16
5 5 -4 9 -1 9 5 0 6 5 8 10 5 6 -3 10 -1 10 4 0 6 7 11 15 11 8 0 15 5 15 10
0 6 7 10 15 10 8 0 15 5 15 11 0 5 5 7 10 4 6 -3 10 -1 10 5 0 7 6 10 14 7 8
-3 16 -3 18 1 2 4 17 18 35 30 23 16 33 19 36 10 3 -8 6 -6 6 4 1 10 7 17 14
15 6 -1 11 4 9 11 -1 8 2 11 7 8 5 -4 12 -2 16 4 4 6 11 8 16 5 5 -4 9 -1 9 5
0 6 5 8 12 4 7 -5 9 -2 6 8 -4 10 0 14 15 13 22 -2 48 15 41 26 -2 3 2 6 9 6
23 1 41 8 59 26 10 9 25 17 33 17 8 0 15 5 15 10 0 6 6 10 14 10 8 0 17 7 20
16 3 8 9 13 14 11 4 -3 18 1 32 9 14 7 19 13 12 14 -8 0 -10 5 -5 13 12 20 12
37 0 37 -7 0 -5 5 3 10 8 5 10 10 4 10 -6 0 -11 7 -11 15 0 8 5 15 11 15 7 0
7 3 1 8 -13 9 -16 42 -4 42 6 0 6 8 0 19 -6 10 -7 21 -4 25 11 11 12 36 2 36
-6 0 -5 8 1 20 6 11 7 20 2 20 -4 0 -8 9 -8 20 0 11 4 20 8 20 5 0 4 8 -1 19
-6 10 -7 21 -4 25 11 11 12 36 2 36 -6 0 -5 8 1 20 6 11 7 20 2 20 -4 0 -8 9
-8 20 0 11 4 20 8 20 5 0 4 8 -1 19 -6 10 -7 21 -4 25 11 11 12 36 2 36 -6 0
-5 8 1 20 6 11 7 20 2 20 -4 0 -8 9 -8 20 0 11 4 20 8 20 5 0 4 8 -1 19 -6 10
-7 21 -4 25 10 10 12 36 3 36 -8 0 -5 43 5 59 3 6 1 11 -5 11 -6 0 -8 5 -3 13
10 16 13 37 4 37 -4 0 -7 9 -7 20 0 11 4 20 8 20 5 0 4 8 -1 19 -6 10 -7 21
-4 25 10 9 13 36 4 36 -4 0 -7 9 -7 20 0 11 4 20 8 20 5 0 4 8 -1 19 -6 10 -7
21 -4 25 10 10 11 46 1 46 -5 0 -4 9 2 20 8 15 8 20 -1 20 -9 0 -9 3 0 14 9
10 9 16 1 21 -7 4 -8 11 -2 18 5 7 6 21 2 32 -4 11 -3 28 2 38 6 11 5 17 -2
17 -6 0 -8 5 -3 13 10 16 13 37 4 37 -4 0 -7 9 -7 20 0 11 4 20 8 20 5 0 4 8
-1 19 -6 10 -7 21 -4 25 10 9 13 36 4 36 -4 0 -7 9 -7 20 0 11 4 20 8 20 5 0
4 8 -1 19 -6 10 -7 21 -4 25 10 10 11 46 1 46 -5 0 -4 9 2 20 8 15 8 20 -1 20
-9 0 -9 3 0 14 9 10 9 16 1 21 -7 4 -8 11 -2 18 5 7 6 21 2 32 -4 11 -3 28 2
38 6 11 5 17 -2 17 -6 0 -8 5 -3 13 10 16 13 37 4 37 -4 0 -7 9 -7 20 0 11 4
20 8 20 5 0 4 8 -1 19 -6 10 -7 21 -4 25 10 9 13 36 4 36 -4 0 -6 14 -5 30 2
29 -12 37 -49 31 -5 -1 -6 2 -4 6 3 5 -7 17 -21 27 -14 11 -22 14 -18 8 5 -8
2 -10 -8 -6 -9 3 -16 10 -16 14 0 8 -38 23 -52 21 -4 0 -4 7 -1 17 6 15 5 16
-12 2 -12 -9 -16 -10 -11 -2 5 8 -2 16 -23 23 -17 6 -31 15 -31 20 0 5 -6 9
-14 9 -7 0 -19 7 -26 15 -7 8 -16 13 -20 10 -5 -3 -10 0 -12 5 -2 6 -13 12
-25 13 -12 0 -19 5 -17 9 3 4 -2 8 -11 8 -10 0 -13 5 -9 13 4 6 4 9 -1 5 -4
-4 -14 -3 -22 3 -7 6 -13 8 -13 5 0 -4 -7 0 -16 8 -8 9 -20 14 -25 11 -5 -4
-9 2 -9 12 0 15 -2 16 -10 3 -8 -13 -10 -12 -10 3 0 15 -18 22 -43 18 -5 -1
-6 3 -2 9 5 9 -1 12 -21 9 -3 0 -13 8 -22 18 -9 10 -24 19 -32 21 -8 2 -17 8
-18 13 -2 5 -7 7 -12 4 -5 -3 -14 0 -22 7 -7 7 -25 19 -40 27 -16 8 -28 19
-28 25 0 6 -5 4 -10 -4 -8 -13 -10 -12 -10 3 0 11 -6 17 -12 14 -7 -2 -21 5
-30 16 -12 14 -18 16 -18 6 0 -8 -6 -4 -16 9 -8 12 -25 22 -36 22 -12 0 -18 3
-15 7 4 3 -3 11 -16 18 -15 8 -24 8 -29 1 -5 -7 -8 -5 -8 5 0 9 -8 23 -17 30
-11 10 -14 10 -9 2 4 -7 2 -13 -3 -13 -6 0 -11 8 -12 18 0 11 -2 12 -6 4 -4
-9 -10 -7 -22 7 -10 12 -21 18 -25 14 -3 -3 -6 0 -6 7 0 7 -3 10 -7 7 -3 -4
-12 1 -20 11 -8 9 -12 11 -8 5 4 -9 1 -11 -10 -7 -9 4 -13 9 -11 12 7 6 -41
32 -60 32 -8 0 -17 7 -20 15 -4 8 -10 12 -15 9 -5 -3 -9 0 -9 5 0 6 -7 11 -15
11 -8 0 -15 5 -15 10 0 6 -9 10 -21 10 -11 0 -17 5 -14 10 4 6 -7 10 -24 10
-28 0 -36 9 -32 34 1 5 -5 6 -13 3 -8 -3 -20 1 -27 9 -7 8 -18 13 -26 10 -8
-3 -11 -1 -8 4 3 6 -1 10 -9 10 -9 0 -16 4 -16 9 0 5 -7 12 -16 15 -10 4 -13
2 -8 -7 4 -6 -3 -2 -15 11 -12 12 -26 20 -31 17 -4 -3 -10 2 -14 10 -3 8 -12
15 -21 15 -8 0 -15 5 -15 11 0 5 -4 8 -9 4 -6 -3 -14 3 -20 12 -6 10 -11 13
-11 6 0 -7 -15 2 -32 18 -20 18 -40 28 -51 25 -11 -3 -16 -2 -13 1 3 4 -4 13
-17 22 -12 9 -23 14 -25 13 -2 -2 -14 4 -28 12 -13 9 -24 13 -24 9 0 -5 -5 0
-11 10 -5 9 -17 17 -24 17 -8 0 -15 5 -15 11 0 5 -4 7 -10 4 -5 -3 -10 -1 -10
5 0 6 -4 8 -10 5 -5 -3 -10 1 -10 10 0 9 -4 14 -9 11 -11 -7 -63 19 -54 27 3
4 -1 7 -10 7 -10 0 -17 4 -17 10 0 5 -7 7 -15 4 -8 -4 -15 -2 -15 3 0 5 -22
20 -50 33 -27 13 -50 27 -50 32 0 5 -4 6 -10 3 -5 -3 -10 -1 -10 4 0 6 -9 11
-21 11 -11 0 -17 5 -14 10 3 6 -3 10 -14 10 -11 0 -25 8 -30 18 -8 13 -10 14
-11 2 0 -13 -2 -13 -9 0 -6 8 -7 18 -5 22 3 4 -2 5 -10 2 -8 -3 -25 4 -37 15
-13 12 -30 21 -38 21 -8 0 -24 9 -35 19 -12 11 -28 21 -36 23 -8 2 -23 11 -34
21 -11 10 -25 16 -31 13 -13 -4 -36 19 -27 28 3 4 -1 4 -11 0 -10 -3 -17 -1
-17 5 0 6 -9 11 -21 11 -13 0 -18 4 -13 12 5 8 2 9 -9 5 -11 -4 -17 -1 -17 9
0 8 -4 13 -9 9 -5 -3 -12 -1 -16 5 -4 6 -11 8 -16 5 -5 -4 -9 -1 -9 4 0 6 -7
11 -15 11 -8 0 -15 5 -15 10 0 6 -9 10 -21 10 -11 0 -17 5 -14 10 3 6 -3 10
-14 10 -12 0 -21 5 -21 10 0 6 -7 10 -15 10 -8 0 -15 5 -15 11 0 5 -4 7 -10 4
-5 -3 -10 -1 -10 5 0 6 -4 8 -10 5 -5 -3 -10 -2 -10 4 0 5 -16 15 -35 21 -19
6 -33 16 -30 21 4 5 -3 9 -14 9 -12 0 -21 5 -21 11 0 5 -5 7 -10 4 -6 -3 -13
1 -16 9 -3 9 -14 16 -23 16 -10 0 -27 9 -39 20 -12 11 -31 20 -42 20 -12 0
-19 4 -16 8 2 4 -4 14 -16 21 -16 10 -19 10 -13 -1 3 -7 -2 -4 -12 8 -10 11
-26 20 -36 18 -10 -1 -17 4 -17 13 0 10 -6 13 -16 9 -8 -3 -12 -2 -9 4 3 6 1
11 -4 11 -6 1 -15 2 -20 3 -5 0 -21 11 -34 23 -14 12 -28 19 -31 16 -3 -4 -6
-1 -6 6 0 7 -4 10 -9 7 -5 -4 -11 -1 -13 4 -2 6 -13 12 -26 13 -12 0 -25 9
-28 19 -3 10 -8 17 -12 16 -13 -4 -52 13 -52 23 0 5 -6 8 -12 6 -7 -1 -12 4
-10 11 1 8 -2 11 -9 7 -13 -9 -60 15 -53 27 5 7 -26 13 -49 9 -5 -1 -6 2 -3 7
2 4 -10 14 -27 22 -18 7 -40 22 -49 32 -9 11 -20 19 -25 19 -19 -1 -43 11 -38
20 3 5 -1 6 -9 3 -9 -4 -16 -1 -16 6 0 7 -7 10 -16 6 -8 -3 -12 -2 -9 4 3 6
-1 10 -9 10 -8 0 -20 8 -25 18 -6 10 -11 12 -11 4 0 -8 -8 -6 -22 8 -12 11
-26 20 -30 20 -5 0 -7 4 -4 9 3 5 -7 11 -23 14 -16 3 -36 13 -44 22 -9 8 -23
15 -31 15 -9 0 -16 5 -16 10 0 6 -7 10 -16 10 -8 0 -13 4 -9 9 3 6 -4 8 -15 6
-11 -2 -20 0 -20 5 0 5 -9 12 -20 15 -11 4 -17 11 -14 17 4 6 3 8 -3 5 -5 -3
-24 3 -42 14 -18 11 -37 16 -43 13 -6 -4 -8 -3 -5 3 4 6 -11 18 -33 28 -22 10
-40 22 -40 27 0 5 -4 7 -9 4 -5 -4 -11 -2 -13 3 -5 15 -42 19 -70 8z"/>
<path d="M7566 8245 c3 -7 1 -16 -5 -20 -6 -3 -11 0 -11 7 -1 7 -8 1 -16 -14
-14 -27 -32 -41 -19 -15 4 6 -1 3 -9 -7 -9 -11 -16 -24 -16 -29 0 -4 -4 -5
-10 -2 -5 3 -10 -1 -10 -9 0 -9 -3 -15 -7 -15 -20 3 -34 -2 -28 -11 3 -5 -1
-10 -9 -10 -8 0 -24 -14 -36 -30 -12 -17 -26 -28 -30 -25 -5 3 -12 -6 -16 -21
-5 -19 -9 -22 -15 -12 -7 10 -9 9 -9 -5 0 -10 -4 -16 -9 -12 -6 3 -13 0 -18
-8 -4 -7 -20 -20 -35 -30 -16 -10 -28 -24 -28 -33 0 -8 -4 -13 -9 -10 -5 3
-12 -1 -15 -10 -3 -8 -10 -12 -16 -9 -5 3 -15 -5 -21 -19 -7 -14 -16 -23 -20
-20 -5 3 -9 -2 -9 -11 0 -9 -4 -13 -10 -10 -5 3 -10 1 -10 -5 0 -6 -5 -8 -12
-4 -8 5 -9 2 -5 -9 3 -9 3 -16 -1 -16 -20 3 -30 -3 -40 -26 -6 -14 -18 -25
-27 -25 -8 0 -15 -5 -15 -11 0 -5 -4 -7 -10 -4 -5 3 -10 2 -10 -2 0 -5 -7 -18
-16 -29 -8 -10 -12 -12 -8 -4 4 9 -2 7 -13 -5 -11 -11 -18 -24 -15 -30 3 -5 2
-7 -3 -3 -9 8 -50 -11 -41 -19 7 -7 -36 -39 -47 -35 -5 1 -6 -2 -2 -8 3 -5 1
-10 -5 -10 -15 0 -41 -26 -33 -34 4 -3 1 -6 -5 -6 -15 0 -51 -30 -63 -52 -6
-11 -4 -18 7 -22 10 -4 13 -2 8 7 -4 6 4 2 18 -11 13 -12 28 -19 31 -15 4 3 7
2 7 -4 0 -10 30 -24 55 -27 6 -1 18 -10 28 -21 10 -11 15 -14 12 -7 -6 11 -3
12 14 2 12 -6 19 -15 16 -20 -3 -6 1 -7 10 -4 8 4 23 0 32 -7 9 -8 17 -13 17
-11 2 6 66 -23 66 -30 0 -4 9 -8 20 -8 11 0 20 -4 20 -10 0 -5 9 -10 20 -10
11 0 20 -4 20 -9 0 -7 42 -24 46 -18 1 1 11 -6 23 -17 11 -10 32 -18 46 -18
14 0 23 -3 21 -6 -8 -8 45 -33 55 -26 5 3 9 -1 9 -10 0 -8 8 -13 17 -12 10 2
26 -7 36 -18 10 -12 16 -15 12 -9 -3 8 6 6 24 -5 17 -9 31 -21 31 -27 0 -5 5
-3 10 5 6 10 10 11 10 3 0 -7 9 -13 21 -13 13 0 18 -4 13 -12 -5 -8 -2 -9 9
-5 10 4 17 1 17 -5 0 -6 3 -9 6 -5 4 3 13 -1 21 -9 8 -8 19 -12 24 -9 5 4 9 1
9 -4 0 -6 9 -11 20 -11 11 0 20 -4 20 -10 0 -5 9 -10 20 -10 11 0 20 -4 20
-10 0 -5 9 -10 20 -10 11 0 20 -4 20 -10 0 -5 9 -10 20 -10 11 0 20 -4 20 -10
0 -5 11 -10 25 -10 14 0 25 -4 25 -10 0 -5 7 -10 15 -10 8 0 15 -4 15 -9 0 -5
11 -8 25 -6 14 1 23 0 21 -3 -10 -9 25 -34 49 -36 14 0 27 -7 30 -13 2 -7 11
-13 20 -13 8 0 15 -4 15 -10 0 -5 5 -10 11 -10 5 0 7 5 3 11 -3 6 5 3 20 -6
14 -9 24 -21 21 -25 -2 -4 7 -5 20 -2 15 2 25 0 25 -7 0 -6 7 -11 15 -11 8 0
15 -4 15 -10 0 -5 6 -7 14 -4 7 3 16 -2 20 -11 3 -9 11 -13 17 -10 5 4 17 -1
24 -11 8 -11 15 -15 15 -10 0 5 7 3 15 -4 8 -6 19 -9 25 -5 5 3 10 1 10 -4 0
-6 7 -11 15 -11 8 0 15 -8 16 -17 0 -10 3 -13 5 -6 3 7 12 9 20 6 7 -3 11 -9
8 -14 -3 -5 2 -6 10 -3 9 3 16 2 16 -4 0 -6 8 -9 17 -8 10 2 25 -7 35 -18 12
-14 17 -17 18 -7 0 9 7 6 20 -9 11 -13 20 -20 20 -16 0 4 34 -10 75 -32 41
-21 72 -35 69 -31 -3 5 2 6 10 3 9 -3 13 -11 9 -17 -4 -6 0 -8 10 -4 10 3 17
2 17 -4 0 -6 5 -7 10 -4 6 3 10 1 10 -4 0 -6 9 -11 20 -11 11 0 20 -5 20 -11
0 -6 7 -8 16 -5 8 3 12 2 9 -4 -3 -6 -3 -10 2 -11 29 -3 48 -9 51 -18 2 -6 11
-11 19 -11 9 0 22 -8 29 -17 10 -14 13 -15 14 -4 0 12 3 11 13 -2 6 -9 24 -18
39 -19 15 -1 24 -6 22 -10 -3 -4 4 -8 16 -8 14 0 19 -4 14 -12 -5 -8 0 -7 11
2 10 8 16 11 13 5 -7 -13 11 -29 37 -33 11 -2 22 -8 23 -13 2 -5 11 -9 21 -9
9 0 27 -9 39 -20 14 -13 22 -16 22 -8 0 8 3 9 8 3 9 -13 53 -35 76 -39 10 -1
24 -9 30 -17 6 -8 20 -16 31 -17 11 -2 22 -8 23 -13 2 -5 12 -9 23 -9 10 0 19
-4 19 -10 0 -5 9 -10 20 -10 11 0 20 -4 20 -10 0 -5 9 -10 20 -10 11 0 20 -5
20 -12 0 -6 3 -8 7 -5 3 4 13 1 22 -6 9 -7 35 -19 59 -27 23 -7 42 -17 42 -22
0 -4 12 -8 28 -8 21 0 24 -2 12 -10 -12 -8 -11 -10 7 -10 12 0 28 -7 36 -15
12 -11 17 -12 20 -2 3 7 6 5 6 -5 1 -11 8 -16 20 -13 11 2 22 -3 25 -12 5 -12
9 -13 21 -3 10 8 11 18 5 35 -5 14 -5 26 3 34 8 8 8 11 -1 11 -9 0 -10 5 -4
18 5 9 6 26 2 37 -4 11 -3 26 2 33 7 7 7 12 1 12 -5 0 -10 7 -10 15 0 8 4 15
9 15 5 0 4 8 -1 18 -5 10 -6 24 -1 32 4 7 4 23 0 35 -5 14 -4 27 3 34 7 7 7
11 1 11 -6 0 -11 7 -11 15 0 8 4 15 8 15 18 0 -17 58 -41 69 -16 6 -35 26 -44
44 -8 18 -16 26 -16 19 0 -14 -10 -8 -61 41 -15 15 -33 27 -39 27 -5 0 -10 8
-10 17 0 9 -3 14 -6 11 -3 -3 -16 5 -30 19 -13 13 -29 21 -34 18 -6 -3 -10 -1
-10 4 0 16 -38 51 -56 51 -8 0 -13 4 -10 8 3 5 -6 15 -19 22 -14 7 -25 17 -25
22 0 4 -7 8 -15 8 -8 0 -15 7 -15 16 0 10 -6 14 -14 11 -9 -4 -17 2 -21 14 -4
10 -11 17 -16 14 -5 -4 -9 -2 -9 3 0 5 -10 14 -22 21 -13 6 -15 9 -5 6 10 -3
15 -1 12 5 -3 6 -13 10 -21 10 -8 0 -25 10 -38 23 -13 12 -32 28 -42 35 -11 7
-13 10 -5 6 8 -4 12 -3 8 3 -4 6 -20 16 -37 23 -16 7 -30 16 -30 21 0 5 -7 9
-16 9 -8 0 -12 5 -9 10 3 6 0 10 -8 10 -8 0 -19 10 -25 23 -6 12 -11 16 -11 9
-1 -10 -4 -10 -16 2 -8 8 -15 20 -15 26 0 6 -4 9 -9 5 -12 -7 -43 24 -35 36 3
5 2 9 -3 8 -22 -5 -78 33 -66 45 4 3 -1 6 -11 6 -9 0 -27 11 -40 25 -13 13
-26 22 -29 18 -4 -3 -7 1 -7 10 0 15 -5 19 -27 16 -4 0 -11 9 -15 21 -4 12
-17 24 -28 27 -11 3 -20 9 -20 14 0 5 -7 9 -15 9 -8 0 -15 6 -15 14 0 8 -5 18
-12 22 -7 5 -8 3 -3 -7 5 -8 -1 -6 -13 5 -12 10 -19 23 -15 29 3 6 1 7 -5 3
-7 -4 -12 -2 -12 4 0 6 -4 8 -10 5 -5 -3 -10 -1 -10 5 0 6 -4 8 -10 5 -5 -3
-10 1 -10 10 0 9 -4 13 -10 10 -5 -3 -10 1 -10 10 0 11 -5 15 -16 11 -8 -3
-12 -2 -9 4 3 6 -1 10 -9 10 -8 0 -20 9 -26 20 -6 11 -17 20 -25 20 -8 0 -15
7 -15 16 0 8 -4 12 -10 9 -5 -3 -10 -1 -10 4 0 6 -7 11 -16 11 -8 0 -12 5 -9
10 3 6 -1 10 -10 10 -9 0 -13 5 -10 10 6 9 -8 14 -28 11 -5 -1 -6 3 -2 9 3 5
-2 10 -12 10 -15 0 -16 2 -3 10 12 8 11 10 -7 10 -13 0 -23 5 -23 10 0 6 -6
10 -14 10 -8 0 -18 9 -21 20 -4 11 -11 18 -16 15 -5 -4 -9 -1 -9 5 0 7 -7 10
-15 6 -8 -3 -14 -2 -14 2 3 20 -2 32 -13 30 -7 -2 -12 3 -10 10 1 8 -2 11 -7
7 -6 -3 -24 9 -41 26 -16 18 -30 28 -30 23 -1 -5 -7 2 -15 16 -8 14 -14 21
-15 16 0 -5 -7 -3 -15 4 -8 7 -12 17 -8 23 4 6 1 7 -6 3 -7 -5 -18 0 -26 10
-8 11 -15 15 -15 11 0 -4 -6 -2 -14 5 -8 7 -12 16 -9 21 2 4 -3 7 -11 7 -21 0
-59 38 -51 50 3 6 -1 7 -9 4 -9 -3 -16 -1 -16 6 0 6 -4 8 -10 5 -5 -3 -10 2
-10 11 0 10 -3 15 -6 11 -4 -3 -13 1 -21 9 -8 8 -19 11 -25 8 -6 -4 -8 -3 -5
3 4 6 -1 19 -9 29 -9 10 -13 12 -9 4 4 -8 -3 -4 -15 10 -12 14 -19 18 -15 10
4 -8 -1 -6 -9 4 -9 11 -16 24 -16 29 0 5 -5 7 -12 5 -6 -2 -24 8 -38 24 -15
15 -30 25 -33 21 -4 -3 -7 0 -7 8 0 8 -20 26 -45 41 -24 14 -42 21 -39 13z"/>
<path d="M6784 7328 c-4 -7 -3 -8 4 -4 7 4 12 2 12 -3 0 -6 -5 -11 -10 -11 -7
0 -8 -6 -2 -17 6 -9 6 -29 2 -45 -6 -19 -5 -28 3 -28 7 0 6 -4 -3 -10 -8 -5
-10 -10 -4 -10 7 0 8 -17 4 -50 -3 -27 -2 -56 2 -65 6 -10 5 -15 -4 -15 -9 0
-9 -3 2 -10 8 -5 10 -10 4 -10 -8 0 -9 -11 -4 -35 5 -24 4 -35 -4 -35 -6 0 -4
-5 4 -10 8 -5 10 -10 5 -10 -14 0 -13 -53 0 -62 6 -5 4 -8 -5 -8 -13 0 -13 -1
0 -10 13 -9 13 -10 0 -10 -13 0 -13 -1 0 -10 8 -5 10 -10 5 -10 -10 0 -10 -92
-1 -117 3 -7 1 -13 -4 -13 -5 0 -5 -13 0 -30 6 -21 5 -30 -3 -30 -7 0 -6 -4 3
-10 8 -5 10 -10 5 -10 -14 0 -13 -53 0 -62 6 -5 4 -8 -5 -8 -13 0 -13 -1 0
-10 13 -9 13 -10 0 -10 -13 0 -13 -1 0 -10 8 -5 10 -10 4 -10 -7 0 -9 -15 -4
-45 5 -30 3 -45 -4 -45 -6 0 -4 -5 4 -10 9 -6 10 -10 3 -10 -8 0 -9 -9 -3 -30
6 -21 5 -30 -3 -30 -8 0 -8 -3 1 -9 11 -6 10 -10 -4 -15 -13 -5 -14 -10 -6
-18 8 -8 8 -17 1 -30 -7 -13 -6 -18 2 -18 8 0 8 -4 1 -12 -12 -15 -12 -26 -2
-54 4 -11 4 -28 -1 -37 -7 -12 -6 -17 2 -17 8 0 8 -4 -1 -15 -10 -12 -10 -15
1 -15 9 0 10 -3 4 -8 -12 -9 -15 -52 -3 -52 5 0 4 -9 -2 -20 -8 -14 -8 -20 0
-20 7 0 8 -6 2 -17 -5 -10 -6 -27 -2 -38 4 -11 3 -28 -2 -37 -6 -12 -5 -18 3
-18 8 0 8 -4 -1 -15 -10 -12 -10 -15 1 -15 9 0 10 -3 4 -8 -12 -9 -15 -52 -3
-52 5 0 4 -9 -2 -20 -8 -14 -8 -20 0 -20 7 0 8 -6 2 -17 -5 -10 -6 -27 -2 -38
4 -11 3 -28 -2 -37 -6 -12 -5 -18 3 -18 9 0 9 -3 0 -14 -9 -11 -9 -15 1 -19
10 -4 10 -6 1 -6 -9 -1 -10 -8 -4 -24 5 -14 5 -30 0 -40 -7 -12 -6 -17 2 -17
9 0 9 -3 0 -14 -8 -10 -9 -16 -1 -21 7 -4 7 -12 0 -26 -8 -13 -7 -19 0 -19 7
0 8 -5 3 -12 -16 -25 -8 -54 24 -85 18 -18 37 -33 43 -33 5 0 10 -4 10 -8 0
-5 7 -17 16 -28 8 -10 12 -12 9 -4 -4 8 4 3 17 -12 14 -16 30 -28 36 -28 6 0
14 -5 18 -12 5 -7 3 -8 -7 -3 -8 5 -5 -1 5 -13 21 -24 30 -29 21 -9 -4 6 3 0
15 -15 12 -16 28 -28 36 -28 9 0 12 -4 9 -10 -3 -5 1 -10 10 -10 9 0 13 -4 10
-10 -3 -5 -2 -10 3 -10 6 0 23 -12 40 -27 16 -16 38 -34 48 -41 11 -7 12 -10
4 -6 -8 4 -1 -6 15 -22 17 -16 36 -28 44 -25 9 3 12 0 7 -7 -3 -6 3 -13 14
-17 11 -3 20 -13 20 -21 0 -8 7 -14 15 -14 8 0 15 -5 15 -11 0 -8 5 -7 16 2
10 8 12 15 5 17 -8 3 -8 9 -1 23 8 14 7 19 -1 19 -9 0 -9 3 0 14 8 10 9 16 1
21 -7 4 -7 13 1 27 8 16 8 22 -2 29 -10 6 -10 10 0 23 11 13 11 16 0 16 -9 0
-10 3 -4 8 12 9 15 52 3 52 -5 0 -4 9 2 20 6 11 7 20 2 20 -10 0 -8 42 3 59 3
6 1 11 -6 11 -9 0 -9 3 0 14 8 10 9 16 1 21 -7 4 -7 12 0 26 8 14 7 19 -1 19
-9 0 -9 3 0 14 8 10 9 16 1 21 -7 4 -7 12 0 26 8 14 7 19 -1 19 -9 0 -9 3 0
14 8 10 9 16 1 21 -7 4 -7 12 0 26 8 13 7 19 0 19 -7 0 -8 5 -3 13 10 16 11
28 2 53 -4 11 -3 28 2 37 7 12 6 17 -2 17 -8 0 -8 4 1 15 10 12 10 15 -1 15
-9 0 -10 3 -4 8 12 9 15 52 3 52 -5 0 -4 9 2 20 8 14 8 20 0 20 -7 0 -8 6 -2
18 5 9 6 26 2 37 -4 11 -3 28 2 38 6 11 5 17 -3 17 -8 0 -8 4 1 15 10 12 10
15 -1 15 -9 0 -10 3 -4 8 12 9 15 52 3 52 -5 0 -4 9 2 20 8 14 8 20 0 20 -7 0
-8 6 -2 18 5 9 6 26 2 37 -4 11 -3 28 2 38 6 11 5 17 -3 17 -9 0 -9 3 0 14 9
11 9 15 -1 19 -10 4 -10 6 -1 6 9 1 10 8 4 24 -5 14 -5 30 0 40 7 12 6 17 -2
17 -9 0 -9 3 0 14 8 10 9 16 1 21 -7 4 -7 12 0 26 8 14 7 19 -1 19 -9 0 -9 3
0 14 8 10 9 16 1 21 -7 4 -7 12 0 26 8 14 7 19 -1 19 -9 0 -9 3 0 14 8 10 9
16 1 21 -7 4 -7 12 0 26 8 13 7 19 0 19 -6 0 -8 5 -3 13 11 18 12 37 2 37 -6
0 -5 8 1 20 8 14 8 20 0 20 -7 0 -8 6 -2 18 5 9 6 26 2 37 -4 11 -3 28 2 38 6
11 5 17 -3 17 -8 0 -8 4 1 15 10 12 10 15 -1 15 -9 0 -10 3 -4 8 12 9 15 52 3
52 -5 0 -4 9 2 20 8 14 8 20 0 20 -8 0 -8 6 0 20 8 15 8 20 -2 20 -9 0 -9 3 2
10 9 6 10 10 3 10 -14 0 -63 47 -57 53 3 2 -11 12 -31 21 -19 10 -34 20 -32
24 4 7 -30 44 -35 40 -7 -6 -57 46 -52 53 3 5 -2 6 -10 3 -11 -4 -16 0 -16 10
0 9 -6 16 -14 16 -8 0 -22 9 -30 21 -8 12 -19 18 -25 14 -7 -3 -10 -3 -9 2 5
16 -30 55 -43 48 -8 -5 -10 -4 -5 3 4 7 1 12 -9 12 -9 0 -13 5 -10 10 3 6 -1
10 -10 10 -9 0 -14 4 -11 9 7 11 -22 23 -35 16 -5 -4 -6 2 -2 11 4 11 3 15 -5
10 -6 -3 -14 3 -17 15 -5 16 -9 18 -15 9 -6 -9 -10 -7 -15 9 -7 23 -20 27 -31
9z"/>
<path d="M9680 6536 c0 -2 8 -10 18 -17 15 -13 16 -12 3 4 -13 16 -21 21 -21
13z"/>
<path d="M9193 4788 c4 -11 2 -18 -6 -18 -8 0 -6 -4 3 -10 11 -7 11 -10 2 -10
-10 0 -10 -5 -2 -20 8 -15 8 -20 -2 -20 -9 0 -9 -3 2 -10 8 -5 10 -10 4 -10
-7 0 -9 -15 -4 -45 4 -25 3 -45 -1 -45 -4 0 -5 -10 -1 -22 4 -16 2 -19 -9 -13
-11 6 -11 5 -2 -5 8 -9 9 -19 2 -32 -7 -12 -6 -18 1 -18 6 0 8 -5 3 -12 -11
-19 -12 -38 -2 -38 6 0 5 -8 -1 -20 -8 -14 -8 -20 0 -20 7 0 8 -6 2 -17 -5
-10 -6 -27 -2 -38 4 -11 3 -28 -2 -37 -6 -12 -5 -18 3 -18 8 0 8 -4 -1 -15
-10 -12 -10 -15 1 -15 9 0 10 -3 4 -8 -12 -9 -15 -52 -3 -52 5 0 4 -9 -2 -20
-6 -11 -7 -20 -2 -20 10 0 8 -42 -3 -59 -3 -6 -1 -11 6 -11 9 0 9 -3 0 -14 -8
-10 -9 -16 -1 -21 7 -4 7 -12 0 -26 -8 -13 -7 -19 0 -19 7 0 8 -5 3 -12 -10
-17 -11 -29 -2 -54 4 -11 3 -28 -2 -37 -7 -12 -6 -17 2 -17 9 0 9 -3 0 -14 -9
-11 -9 -15 1 -19 7 -3 8 -6 2 -6 -11 -1 -10 -63 1 -81 3 -6 1 -10 -5 -10 -7 0
-8 -6 0 -19 7 -14 7 -22 -1 -27 -8 -4 -7 -9 2 -15 10 -6 10 -9 2 -9 -9 0 -10
-7 -4 -23 5 -14 5 -30 0 -40 -7 -12 -6 -17 2 -17 9 0 9 -3 0 -14 -8 -10 -9
-16 -1 -21 7 -4 7 -12 0 -26 -8 -13 -7 -19 0 -19 6 0 8 -5 3 -12 -11 -19 -12
-38 -2 -38 6 0 5 -8 -1 -20 -8 -14 -8 -20 0 -20 7 0 8 -6 2 -17 -5 -10 -6 -27
-2 -38 4 -11 3 -28 -2 -37 -6 -12 -5 -18 3 -18 8 0 8 -4 -1 -15 -10 -12 -10
-15 1 -15 9 0 10 -3 4 -8 -12 -9 -15 -52 -3 -52 5 0 4 -9 -2 -20 -6 -11 -7
-20 -2 -20 10 0 8 -42 -3 -59 -3 -6 -1 -11 6 -11 9 0 9 -3 0 -14 -8 -10 -9
-16 -1 -21 7 -4 7 -12 0 -26 -8 -13 -7 -19 0 -19 7 0 8 -5 3 -12 -10 -17 -11
-29 -2 -54 4 -11 3 -28 -2 -37 -7 -12 -6 -17 2 -17 8 0 8 -4 -1 -15 -10 -12
-10 -15 1 -15 9 0 10 -3 4 -8 -11 -8 -15 -62 -4 -62 12 0 48 -37 42 -44 -3 -3
1 -6 11 -6 10 0 14 -5 10 -12 -4 -6 -3 -8 3 -5 6 4 31 -14 56 -38 25 -25 50
-45 57 -45 6 0 8 -4 5 -10 -3 -5 1 -10 9 -10 10 0 16 -9 17 -22 0 -13 3 -17 6
-11 3 10 8 10 19 -1 8 -8 14 -19 14 -25 0 -6 7 -7 17 -4 11 4 14 3 9 -5 -4 -7
-1 -12 8 -12 8 0 18 -9 21 -20 4 -11 11 -18 16 -15 8 6 13 -9 10 -29 -1 -5 5
-6 14 -3 8 4 15 3 15 -2 0 -5 9 -11 21 -14 12 -3 18 -10 15 -16 -4 -5 3 -12
14 -16 11 -3 20 -14 20 -22 0 -9 3 -14 6 -10 9 9 54 -35 47 -47 -4 -6 1 -5 10
3 15 12 17 11 18 -5 1 -11 5 -3 9 16 6 23 5 37 -3 42 -8 5 -7 11 2 21 9 12 9
16 -1 20 -7 3 -8 6 -2 6 11 1 10 63 -1 81 -3 6 -1 10 5 10 7 0 8 6 0 19 -7 14
-7 22 1 27 8 4 7 9 -2 15 -8 5 -9 9 -4 9 6 0 10 11 10 25 0 14 -4 25 -8 25 -4
0 -3 9 3 20 8 14 8 20 0 20 -7 0 -8 6 -1 17 5 10 5 26 0 40 -5 15 -5 23 2 23
6 0 6 7 -1 19 -7 14 -7 22 1 27 8 4 7 9 -2 15 -8 5 -9 9 -4 9 6 0 10 11 10 25
0 14 -4 25 -8 25 -4 0 -3 9 3 20 6 11 7 20 2 20 -10 0 -8 42 3 59 3 6 1 11 -6
11 -9 0 -9 3 0 14 8 10 9 16 1 21 -7 4 -7 12 0 26 8 13 7 19 0 19 -6 0 -8 5
-3 13 11 18 12 37 2 37 -6 0 -5 8 1 20 8 14 8 20 0 20 -7 0 -8 6 -1 17 5 10 5
26 0 40 -5 15 -5 23 2 23 6 0 6 7 -1 19 -7 14 -7 22 1 27 8 4 7 9 -2 15 -8 5
-9 9 -4 9 6 0 10 11 10 25 0 14 -4 25 -8 25 -4 0 -3 9 3 20 6 11 7 20 2 20
-10 0 -8 42 3 59 3 6 1 11 -6 11 -9 0 -9 3 0 14 8 10 9 16 1 21 -7 4 -7 12 0
26 8 13 7 19 0 19 -6 0 -8 5 -3 13 11 18 12 37 2 37 -6 0 -5 8 1 20 8 14 8 20
0 20 -7 0 -8 6 -1 17 5 10 5 26 0 40 -5 15 -5 23 2 23 6 0 6 7 -1 19 -7 14 -7
22 1 27 8 4 7 9 -2 15 -8 5 -9 9 -4 9 6 0 10 11 10 25 0 14 -4 25 -8 25 -4 0
-3 9 3 20 8 14 8 20 0 20 -7 0 -8 6 -1 17 5 10 5 26 0 40 -5 15 -5 23 2 23 6
0 6 7 -1 19 -7 14 -7 22 1 27 8 4 7 9 -2 15 -8 5 -9 9 -3 9 11 0 10 62 -1 80
-3 6 -1 10 5 10 7 0 8 6 0 19 -7 14 -7 22 1 27 8 4 7 9 -2 15 -8 5 -9 9 -4 9
6 0 10 14 10 30 0 17 -4 30 -8 30 -5 0 -5 4 -2 10 3 5 1 18 -4 27 -6 10 -11
14 -11 10 0 -4 -16 8 -35 28 -20 19 -40 35 -46 35 -6 0 -7 5 -4 10 3 6 0 10
-9 10 -8 0 -16 3 -18 8 -1 4 -18 19 -36 35 -19 15 -31 27 -27 27 3 0 0 6 -7
14 -7 8 -16 12 -20 9 -5 -2 -8 1 -8 7 0 6 -4 8 -10 5 -5 -3 -10 -1 -10 4 0 6
-9 20 -20 31 -11 11 -20 17 -20 13 0 -5 -11 4 -24 20 -13 15 -28 27 -35 27
-10 0 -15 14 -12 33 1 5 -3 6 -8 3 -5 -4 -16 1 -24 9 -9 8 -20 15 -25 15 -5 0
-12 9 -15 20 -3 11 -12 20 -21 20 -10 0 -16 9 -17 23 0 12 -3 16 -6 9 -4 -10
-8 -10 -21 0 -13 11 -15 10 -9 -4z"/>
<path d="M6735 3751 c3 -5 1 -12 -4 -15 -5 -4 -6 -17 -3 -31 4 -13 5 -101 2
-195 -3 -110 -1 -170 5 -170 6 0 3 -5 -5 -10 -8 -5 -10 -10 -5 -10 7 0 9 -15
7 -35 -2 -20 0 -35 4 -34 22 4 34 -2 34 -18 0 -9 3 -14 6 -10 3 3 15 -3 27
-13 11 -11 25 -17 30 -13 6 3 7 1 3 -5 -4 -7 -2 -12 4 -12 6 0 8 -4 5 -10 -3
-5 2 -10 12 -10 15 0 16 -2 3 -10 -12 -8 -11 -10 8 -10 12 0 22 -4 22 -10 0
-5 7 -10 15 -10 8 0 15 -4 15 -8 0 -4 14 -16 30 -26 17 -9 28 -21 25 -26 -3
-5 4 -7 16 -5 12 2 19 2 16 -2 -6 -5 17 -33 27 -33 3 0 19 -13 34 -30 16 -16
32 -27 35 -23 4 3 7 0 7 -8 0 -8 18 -22 40 -33 21 -10 38 -24 37 -30 -1 -6 4
-10 11 -9 6 2 12 -2 12 -8 0 -6 6 -17 14 -25 11 -11 16 -11 19 -1 3 7 6 4 6
-6 1 -10 4 -16 9 -14 9 6 33 -19 25 -27 -4 -3 1 -6 10 -6 10 0 17 -4 17 -10 0
-5 5 -10 10 -10 6 0 24 -14 40 -30 17 -17 30 -28 30 -25 0 3 9 1 20 -5 11 -6
20 -17 20 -25 0 -8 7 -15 15 -15 8 0 15 -4 15 -10 0 -5 5 -10 11 -10 15 0 39
-26 39 -42 0 -10 3 -9 10 2 8 13 10 12 10 -2 0 -10 6 -18 14 -18 8 0 24 -12
36 -27 12 -16 18 -21 15 -13 -4 8 4 3 17 -12 14 -16 31 -28 37 -28 7 0 9 -4 6
-10 -3 -5 1 -10 9 -10 9 0 16 -4 16 -10 0 -5 7 -7 15 -4 11 5 13 2 9 -10 -4
-11 -1 -16 10 -16 9 0 16 -7 16 -16 0 -8 5 -12 10 -9 6 3 10 1 10 -6 0 -7 3
-9 7 -6 3 4 16 -5 29 -18 13 -14 25 -25 28 -25 3 0 18 -11 33 -25 53 -47 88
-75 96 -75 4 0 7 -7 7 -16 0 -9 5 -14 12 -12 13 5 42 -21 51 -43 5 -12 6 -12
6 0 1 9 8 7 21 -9 11 -12 17 -27 14 -32 -3 -4 -2 -8 3 -7 20 3 44 -2 40 -8 -7
-12 17 -30 35 -27 11 1 15 -3 11 -12 -3 -8 1 -14 11 -14 9 0 16 -5 16 -11 0
-5 5 -7 12 -3 6 4 8 3 5 -3 -6 -10 26 -43 43 -43 6 0 10 -4 10 -10 0 -5 7 -10
15 -10 8 0 24 -13 37 -30 12 -16 31 -30 42 -30 17 0 18 -2 6 -10 -13 -8 -13
-10 1 -10 9 0 24 -10 33 -22 9 -13 14 -16 10 -8 -7 13 -5 13 9 1 9 -7 14 -17
11 -22 -3 -5 2 -6 10 -3 11 4 16 0 16 -10 0 -9 7 -16 15 -16 8 0 19 -9 25 -20
6 -11 17 -20 25 -20 8 0 15 -4 15 -10 0 -5 6 -10 14 -10 8 0 18 -9 21 -20 4
-11 11 -18 16 -15 5 4 9 -1 9 -9 0 -10 7 -13 20 -11 11 2 18 0 16 -4 -6 -9 30
-41 38 -34 3 4 6 -1 6 -10 0 -10 7 -17 15 -17 8 0 15 -4 15 -10 0 -5 7 -10 15
-10 8 0 15 -6 15 -14 0 -8 5 -18 12 -22 7 -5 8 -3 3 7 -5 8 1 6 13 -5 12 -10
19 -23 15 -29 -3 -6 -1 -7 5 -3 7 4 12 2 12 -5 0 -7 3 -10 6 -6 3 3 15 -3 27
-13 11 -11 24 -17 28 -14 5 3 6 -3 2 -12 -4 -12 -3 -15 5 -10 7 4 12 3 12 -2
0 -8 42 -32 55 -32 3 0 5 8 5 17 0 9 3 14 6 10 4 -3 15 4 26 16 11 12 17 15
13 7 -4 -8 1 -6 9 4 9 11 16 23 16 28 0 4 6 7 13 6 6 -2 11 3 9 10 -2 11 10
16 31 13 4 0 7 4 7 10 0 5 4 8 9 4 5 -3 13 0 17 6 5 8 3 9 -6 4 -8 -5 -11 -3
-9 4 3 7 7 11 11 9 3 -2 15 8 27 22 11 14 20 21 21 17 0 -13 30 20 30 33 0 6
5 8 10 5 6 -3 10 1 10 10 0 9 5 13 10 10 6 -3 13 1 16 9 3 9 12 16 20 16 8 0
13 3 12 8 -2 4 2 9 7 11 6 2 32 27 60 55 27 28 40 40 30 26 l-20 -25 27 24
c15 13 25 28 22 32 -3 5 2 9 11 9 10 0 13 5 9 12 -4 6 -3 8 3 5 6 -4 26 8 45
26 18 17 45 41 60 51 15 11 25 23 23 26 -2 4 7 13 20 20 13 7 22 17 19 22 -3
5 -2 8 3 7 20 -4 31 3 41 26 6 14 18 25 27 25 8 0 15 5 15 11 0 5 5 7 10 4 6
-3 10 -2 10 2 0 5 7 18 16 29 8 10 13 12 9 4 -4 -10 -2 -9 8 2 8 10 17 15 21
11 4 -4 4 1 0 12 -6 14 -4 17 9 12 9 -3 19 -2 22 3 8 12 -6 41 -16 34 -5 -3
-19 5 -30 18 -11 13 -18 17 -14 11 3 -7 1 -13 -4 -13 -6 0 -11 5 -11 11 0 5
-4 7 -10 4 -5 -3 -10 -1 -10 5 0 7 -7 10 -15 7 -8 -4 -23 5 -35 20 -11 14 -20
23 -20 19 0 -4 -15 1 -32 11 -18 9 -39 16 -47 14 -7 -1 -10 2 -6 8 3 6 -2 11
-13 11 -11 0 -25 7 -32 15 -7 9 -19 14 -27 11 -8 -3 -11 -1 -8 4 4 6 -6 10
-21 10 -15 0 -25 3 -21 6 7 7 -127 74 -149 74 -8 0 -14 6 -14 14 0 9 -9 13
-25 12 -13 -2 -23 2 -22 8 1 6 -4 10 -10 8 -7 -1 -13 2 -13 8 0 5 -7 10 -15
10 -8 0 -15 5 -15 10 0 6 -3 9 -7 8 -14 -5 -73 24 -73 35 0 6 -3 7 -7 4 -3 -4
-12 1 -20 11 -8 9 -11 11 -8 4 6 -11 3 -11 -16 0 -13 7 -29 19 -37 26 -7 7
-18 10 -23 7 -5 -4 -9 -1 -9 5 0 7 -7 9 -15 6 -9 -3 -18 1 -21 9 -4 8 -15 15
-26 15 -10 0 -16 4 -13 10 3 6 -1 7 -9 4 -9 -3 -16 -1 -16 6 0 6 -4 8 -10 5
-5 -3 -10 -1 -10 5 0 6 -4 9 -9 6 -5 -3 -14 1 -21 9 -7 8 -21 15 -31 15 -11 0
-19 4 -19 9 0 5 -7 12 -16 15 -10 4 -13 2 -8 -7 4 -6 -3 -2 -15 11 -24 24 -36
29 -26 10 4 -7 0 -5 -8 5 -8 9 -22 17 -31 17 -9 0 -16 5 -16 10 0 6 -7 10 -16
10 -8 0 -13 4 -10 9 4 5 -2 8 -11 7 -10 -2 -34 10 -54 25 -20 16 -39 26 -42
22 -4 -3 -13 0 -22 7 -8 7 -15 9 -15 4 0 -4 -6 0 -13 11 -9 11 -19 15 -27 10
-10 -6 -12 -4 -7 8 4 11 2 14 -7 11 -7 -3 -20 2 -29 10 -18 18 -31 21 -21 5 3
-6 -5 -3 -20 6 -14 10 -26 22 -26 27 0 6 -7 8 -15 4 -8 -3 -15 -1 -15 5 0 6
-7 8 -16 5 -12 -5 -15 -2 -10 9 3 9 2 13 -4 10 -5 -3 -21 1 -34 10 -14 9 -29
14 -35 11 -5 -3 -11 1 -15 9 -3 8 -12 15 -21 15 -8 0 -15 5 -15 10 0 6 -5 10
-11 10 -5 0 -7 -5 -3 -11 3 -6 -5 -3 -20 6 -14 10 -26 22 -26 27 0 5 -4 6 -10
3 -5 -3 -10 -1 -10 4 0 6 -5 11 -11 11 -5 0 -7 -5 -3 -11 3 -6 -5 -3 -20 6
-14 10 -26 22 -26 27 0 6 -7 8 -15 4 -8 -3 -15 -2 -15 2 0 5 -16 14 -35 22
-19 8 -35 18 -35 22 0 5 -4 7 -9 3 -5 -3 -12 -1 -16 5 -4 6 -11 7 -17 4 -7 -4
-8 -2 -4 4 7 11 3 14 -26 16 -7 1 -20 9 -30 19 -12 13 -17 15 -21 5 -4 -10 -6
-10 -6 0 -1 6 -8 12 -16 12 -8 0 -15 5 -15 10 0 6 -8 10 -17 10 -21 1 -55 24
-48 34 3 3 0 2 -7 -4 -8 -6 -16 -4 -25 8 -10 12 -12 12 -8 2 4 -10 2 -9 -8 3
-8 9 -22 17 -31 17 -9 0 -16 5 -16 10 0 6 -9 10 -19 10 -10 0 -22 8 -25 17 -6
15 -8 15 -16 3 -8 -12 -10 -12 -16 3 -3 9 -15 17 -25 17 -10 0 -19 5 -19 10 0
6 -9 10 -20 10 -11 0 -20 5 -20 11 0 6 -7 9 -15 6 -8 -4 -17 -1 -21 5 -5 7 -2
8 6 3 9 -6 11 -4 6 4 -5 7 -14 10 -22 7 -8 -3 -14 0 -14 6 0 6 -3 9 -6 5 -4
-3 -13 1 -21 9 -8 8 -19 12 -24 9 -5 -4 -9 -2 -9 3 0 10 -60 38 -72 34 -5 -1
-8 2 -8 7 0 5 -13 14 -30 21 -18 7 -27 17 -23 24 4 6 -1 5 -10 -3 -15 -12 -17
-11 -17 3 0 9 -3 15 -7 14 -16 -4 -53 14 -53 25 0 7 -4 6 -10 -3 -8 -13 -10
-13 -10 2 0 12 -6 15 -22 10 -14 -3 -19 -2 -14 6 5 8 0 12 -13 12 -12 0 -21 5
-21 10 0 6 -12 10 -27 10 -19 0 -24 3 -15 9 10 6 4 10 -20 16 -18 4 -36 7 -40
6 -5 0 -7 4 -5 10 2 10 -17 18 -50 21 -7 1 -13 5 -13 10 0 4 -5 8 -11 8 -5 0
-8 -4 -4 -9z"/>
<path d="M8260 2006 c0 -2 8 -10 18 -17 15 -13 16 -12 3 4 -13 16 -21 21 -21
13z"/>
</g>
</svg>
